<svg width="24" height="24" viewBox="0 0 24 24" fill="none" xmlns="http://www.w3.org/2000/svg">
<g id="SVG">
<path id="Vector" d="M6.49309 7.78688H1.1854C0.950782 7.78688 0.725777 7.69368 0.559879 7.52779C0.393982 7.36189 0.300781 7.13688 0.300781 6.90227V1.59458C0.300781 1.35996 0.393982 1.13496 0.559879 0.969059C0.725777 0.803161 0.950782 0.709961 1.1854 0.709961H6.49309C6.7277 0.709961 6.95271 0.803161 7.11861 0.969059C7.2845 1.13496 7.3777 1.35996 7.3777 1.59458V6.90227C7.3777 7.13688 7.2845 7.36189 7.11861 7.52779C6.95271 7.69368 6.7277 7.78688 6.49309 7.78688ZM2.07001 6.01765H5.60847V2.47919H2.07001V6.01765Z" fill="black"/>
<path id="Vector_2" d="M6.49309 15.7488H1.1854C0.950782 15.7488 0.725777 15.6556 0.559879 15.4897C0.393982 15.3238 0.300781 15.0988 0.300781 14.8642V9.55649C0.300781 9.32188 0.393982 9.09687 0.559879 8.93097C0.725777 8.76508 0.950782 8.67188 1.1854 8.67188H6.49309C6.7277 8.67188 6.95271 8.76508 7.11861 8.93097C7.2845 9.09687 7.3777 9.32188 7.3777 9.55649V14.8642C7.3777 15.0988 7.2845 15.3238 7.11861 15.4897C6.95271 15.6556 6.7277 15.7488 6.49309 15.7488ZM2.07001 13.9796H5.60847V10.4411H2.07001V13.9796Z" fill="black"/>
<path id="Vector_3" d="M6.49309 23.7097H1.1854C0.950782 23.7097 0.725777 23.6165 0.559879 23.4506C0.393982 23.2847 0.300781 23.0597 0.300781 22.8251V17.5174C0.300781 17.2828 0.393982 17.0578 0.559879 16.8919C0.725777 16.726 0.950782 16.6328 1.1854 16.6328H6.49309C6.7277 16.6328 6.95271 16.726 7.11861 16.8919C7.2845 17.0578 7.3777 17.2828 7.3777 17.5174V22.8251C7.3777 23.0597 7.2845 23.2847 7.11861 23.4506C6.95271 23.6165 6.7277 23.7097 6.49309 23.7097ZM2.07001 21.9405H5.60847V18.402H2.07001V21.9405Z" fill="black"/>
<path id="Vector_4" d="M14.454 7.78688H9.14633C8.91172 7.78688 8.68671 7.69368 8.52082 7.52779C8.35492 7.36189 8.26172 7.13688 8.26172 6.90227V1.59458C8.26172 1.35996 8.35492 1.13496 8.52082 0.969059C8.68671 0.803161 8.91172 0.709961 9.14633 0.709961H14.454C14.6886 0.709961 14.9136 0.803161 15.0795 0.969059C15.2454 1.13496 15.3386 1.35996 15.3386 1.59458V6.90227C15.3386 7.13688 15.2454 7.36189 15.0795 7.52779C14.9136 7.69368 14.6886 7.78688 14.454 7.78688ZM10.0309 6.01765H13.5694V2.47919H10.0309V6.01765Z" fill="black"/>
<path id="Vector_5" d="M14.454 15.7488H9.14633C8.91172 15.7488 8.68671 15.6556 8.52082 15.4897C8.35492 15.3238 8.26172 15.0988 8.26172 14.8642V9.55649C8.26172 9.32188 8.35492 9.09687 8.52082 8.93097C8.68671 8.76508 8.91172 8.67188 9.14633 8.67188H14.454C14.6886 8.67188 14.9136 8.76508 15.0795 8.93097C15.2454 9.09687 15.3386 9.32188 15.3386 9.55649V14.8642C15.3386 15.0988 15.2454 15.3238 15.0795 15.4897C14.9136 15.6556 14.6886 15.7488 14.454 15.7488ZM10.0309 13.9796H13.5694V10.4411H10.0309V13.9796Z" fill="black"/>
<path id="Vector_6" d="M14.454 23.7097H9.14633C8.91172 23.7097 8.68671 23.6165 8.52082 23.4506C8.35492 23.2847 8.26172 23.0597 8.26172 22.8251V17.5174C8.26172 17.2828 8.35492 17.0578 8.52082 16.8919C8.68671 16.726 8.91172 16.6328 9.14633 16.6328H14.454C14.6886 16.6328 14.9136 16.726 15.0795 16.8919C15.2454 17.0578 15.3386 17.2828 15.3386 17.5174V22.8251C15.3386 23.0597 15.2454 23.2847 15.0795 23.4506C14.9136 23.6165 14.6886 23.7097 14.454 23.7097ZM10.0309 21.9405H13.5694V18.402H10.0309V21.9405Z" fill="black"/>
<path id="Vector_7" d="M22.415 7.78688H17.1073C16.8727 7.78688 16.6477 7.69368 16.4818 7.52779C16.3159 7.36189 16.2227 7.13688 16.2227 6.90227V1.59458C16.2227 1.35996 16.3159 1.13496 16.4818 0.969059C16.6477 0.803161 16.8727 0.709961 17.1073 0.709961H22.415C22.6496 0.709961 22.8746 0.803161 23.0405 0.969059C23.2064 1.13496 23.2996 1.35996 23.2996 1.59458V6.90227C23.2996 7.13688 23.2064 7.36189 23.0405 7.52779C22.8746 7.69368 22.6496 7.78688 22.415 7.78688ZM17.9919 6.01765H21.5303V2.47919H17.9919V6.01765Z" fill="black"/>
<path id="Vector_8" d="M22.415 15.7488H17.1073C16.8727 15.7488 16.6477 15.6556 16.4818 15.4897C16.3159 15.3238 16.2227 15.0988 16.2227 14.8642V9.55649C16.2227 9.32188 16.3159 9.09687 16.4818 8.93097C16.6477 8.76508 16.8727 8.67188 17.1073 8.67188H22.415C22.6496 8.67188 22.8746 8.76508 23.0405 8.93097C23.2064 9.09687 23.2996 9.32188 23.2996 9.55649V14.8642C23.2996 15.0988 23.2064 15.3238 23.0405 15.4897C22.8746 15.6556 22.6496 15.7488 22.415 15.7488ZM17.9919 13.9796H21.5303V10.4411H17.9919V13.9796Z" fill="black"/>
<path id="Vector_9" d="M22.415 23.7097H17.1073C16.8727 23.7097 16.6477 23.6165 16.4818 23.4506C16.3159 23.2847 16.2227 23.0597 16.2227 22.8251V17.5174C16.2227 17.2828 16.3159 17.0578 16.4818 16.8919C16.6477 16.726 16.8727 16.6328 17.1073 16.6328H22.415C22.6496 16.6328 22.8746 16.726 23.0405 16.8919C23.2064 17.0578 23.2996 17.2828 23.2996 17.5174V22.8251C23.2996 23.0597 23.2064 23.2847 23.0405 23.4506C22.8746 23.6165 22.6496 23.7097 22.415 23.7097ZM17.9919 21.9405H21.5303V18.402H17.9919V21.9405Z" fill="black"/>
</g>
</svg>
